<svg width="690" height="581" viewBox="0 0 690 581" fill="none" xmlns="http://www.w3.org/2000/svg">
<g clip-path="url(#clip0_326_31279)">
<path d="M62.957 125.927C97.7272 125.927 125.914 97.7371 125.914 62.9634C125.914 28.1897 97.7272 0 62.957 0C28.1868 0 0 28.1897 0 62.9634C0 97.7371 28.1868 125.927 62.957 125.927Z" fill="#FA7659"/>
<path d="M374.268 581C546.441 581 686.014 568.752 686.014 553.644C686.014 538.535 546.441 526.287 374.268 526.287C202.096 526.287 62.5227 538.535 62.5227 553.644C62.5227 568.752 202.096 581 374.268 581Z" fill="#C08C65"/>
<path d="M159.781 539.314V488.943C159.781 488.943 179.753 507.181 159.781 543.656" fill="#272747"/>
<path d="M160.441 538.011L174.595 489.673C174.595 489.673 188.637 512.791 159.225 542.18" fill="#272747"/>
<path d="M510.603 528.024V477.653C510.603 477.653 530.576 495.891 510.603 532.366" fill="#272747"/>
<path d="M511.263 526.721L525.417 478.383C525.417 478.383 539.459 501.501 510.047 530.89" fill="#272747"/>
<path d="M435.923 530.629V480.259C435.923 480.259 415.95 498.496 435.923 534.972" fill="#272747"/>
<path d="M435.263 529.327L421.109 480.988C421.109 480.988 407.067 504.106 436.479 533.495" fill="#272747"/>
<path d="M313.951 572.75C306.362 572.75 299.719 567.652 297.739 560.322L296.237 554.755C295.881 553.435 295.776 552.063 295.924 550.708L298.781 524.316C304.217 517.568 312.128 515.944 323.382 521.241L330.338 552.298C332.361 561.347 326.673 570.318 317.625 572.35C316.418 572.619 315.193 572.758 313.96 572.758L313.951 572.75Z" fill="#1E1E1E"/>
<path d="M609.085 357.554L603.102 364.371V383.425C603.102 383.425 584.137 432.042 593.272 456.289C593.272 456.289 599.568 461.561 599.932 453.475C600.297 445.39 604.865 432.042 604.865 432.042C604.865 432.042 617.161 414.125 616.814 402.879C616.814 402.879 631.784 362.695 624.473 357.84L609.085 357.554Z" fill="#5EC988"/>
<path d="M585.187 540.373C584.901 523.169 584.64 505.956 584.397 488.752C584.154 471.548 583.937 454.352 583.755 437.148C583.564 419.952 583.407 402.748 583.277 385.553C583.147 368.349 583.051 351.144 582.982 333.949C582.947 325.342 582.93 316.745 582.912 308.138C582.904 302.624 582.296 295.459 585.969 290.83C586.759 289.831 587.758 289.102 588.895 288.546C591.058 287.495 589.165 284.264 587.011 285.315C581.427 288.042 579.786 294.477 579.326 300.174C579.039 303.744 579.178 307.339 579.187 310.917C579.187 315.303 579.204 319.689 579.222 324.074C579.274 341.531 579.361 358.987 579.482 376.443C579.604 393.977 579.76 411.52 579.942 429.054C580.125 446.51 580.333 463.966 580.576 481.413C580.811 498.87 581.071 516.334 581.358 533.79C581.393 535.988 581.427 538.176 581.462 540.373C581.506 542.779 585.24 542.779 585.196 540.373H585.187Z" fill="#272747"/>
<path d="M624.481 338.005C624.481 338.005 640.06 398.05 656.724 413.648C656.724 413.648 661.812 448.256 689.904 453.484C689.904 453.484 669.307 429.228 673.744 417.999C679.015 404.65 672.337 325.586 624.559 337.883" fill="#5EC988"/>
<path d="M581.401 391.806C583.772 392.327 586.221 391.684 588.166 390.26C590.198 388.775 591.535 386.734 592.49 384.441C593.463 382.088 593.993 379.578 594.557 377.103C595.156 374.48 595.712 371.84 596.337 369.226C598.517 360.02 601.739 350.137 609.528 344.101C613.766 340.819 619.123 339.116 624.473 339.255C626.079 339.299 626.079 336.806 624.473 336.763C619.488 336.633 614.46 337.979 610.214 340.601C606.176 343.103 602.954 346.715 600.523 350.762C595.13 359.725 593.871 370.164 591.275 380.099C590.641 382.531 589.825 385.11 588.097 387.012C586.56 388.697 584.267 389.887 582.061 389.4C581.401 389.253 580.715 389.6 580.533 390.269C580.359 390.894 580.741 391.658 581.401 391.797V391.806Z" fill="#272747"/>
<path d="M689.792 453.883C680.457 451.399 672.884 441.725 667.891 425.893C664.14 413.995 663.141 402.679 663.133 402.566C661.839 387.602 657.367 366.612 643.438 351.596C635.128 342.642 627.312 340.054 627.234 340.028L627.486 339.238C627.816 339.342 635.588 341.921 644.046 351.031C651.826 359.412 661.596 375.149 663.966 402.488C664.001 402.931 668.065 447.24 690.009 453.076L689.792 453.875V453.883Z" fill="#272747"/>
<path d="M623.778 270.187C623.778 270.187 639.356 330.232 656.021 345.829C656.021 345.829 661.109 380.438 689.201 385.666C689.201 385.666 668.603 361.41 673.041 350.18C678.312 336.832 671.634 257.768 623.856 270.065" fill="#5EC988"/>
<path d="M580.707 323.988C583.077 324.509 585.526 323.866 587.471 322.442C589.503 320.957 590.841 318.916 591.796 316.623C592.768 314.27 593.298 311.76 593.862 309.285C594.462 306.662 595.017 304.022 595.643 301.408C597.822 292.202 601.044 282.319 608.833 276.283C613.071 273 618.429 271.298 623.778 271.437C625.384 271.481 625.384 268.988 623.778 268.945C618.793 268.814 613.766 270.161 609.519 272.783C605.481 275.284 602.26 278.897 599.828 282.944C594.436 291.907 593.176 302.346 590.58 312.281C589.946 314.713 589.13 317.292 587.402 319.194C585.865 320.879 583.572 322.068 581.367 321.582C580.707 321.434 580.021 321.782 579.838 322.451C579.665 323.076 580.047 323.84 580.707 323.979V323.988Z" fill="#272747"/>
<path d="M689.088 386.065C679.753 383.582 672.181 373.907 667.188 358.075C663.437 346.177 662.438 334.861 662.429 334.748C661.135 319.784 656.663 298.794 642.735 283.778C634.424 274.824 626.609 272.236 626.531 272.21L626.783 271.42C627.113 271.524 634.884 274.103 643.342 283.214C651.123 291.594 660.892 307.331 663.263 334.67C663.298 335.113 667.362 379.422 689.305 385.258L689.088 386.057V386.065Z" fill="#272747"/>
<path d="M539.233 401.958C539.233 401.958 523.655 462.003 506.991 477.601C506.991 477.601 501.902 512.209 473.81 517.437C473.81 517.437 494.408 493.181 489.97 481.952C484.699 468.604 491.377 389.539 539.155 401.837" fill="#5EC988"/>
<path d="M581.644 453.354C579.717 453.779 577.659 452.911 576.174 451.538C574.515 450.001 573.569 447.874 572.909 445.755C572.144 443.305 571.632 440.778 571.076 438.277C570.477 435.585 569.887 432.893 569.209 430.218C566.847 420.917 562.983 411.363 554.959 405.545C550.444 402.271 544.799 400.577 539.233 400.716C537.635 400.76 537.627 403.252 539.233 403.209C544.044 403.087 548.811 404.442 552.832 407.091C556.618 409.592 559.518 413.205 561.707 417.139C564.147 421.524 565.666 426.318 566.882 431.173C567.551 433.813 568.124 436.479 568.714 439.137C569.279 441.655 569.791 444.209 570.581 446.666C571.415 449.246 572.657 451.851 574.776 453.623C576.877 455.386 579.56 456.358 582.304 455.759C582.964 455.612 583.346 454.847 583.173 454.231C582.99 453.553 582.296 453.215 581.644 453.362V453.354Z" fill="#272747"/>
<path d="M473.923 517.837L473.706 517.038C495.65 511.21 499.714 466.902 499.748 466.45C501.06 451.356 505.575 430.174 519.669 414.994C528.118 405.884 535.899 403.304 536.229 403.2L536.48 403.99C536.402 404.016 528.544 406.63 520.233 415.602C512.557 423.887 502.918 439.45 500.573 466.528C500.565 466.641 499.557 477.957 495.815 489.855C490.83 505.687 483.258 515.362 473.914 517.845L473.923 517.837Z" fill="#272747"/>
<path d="M536.776 282.484C536.776 282.484 521.197 342.529 504.533 358.127C504.533 358.127 499.444 392.735 471.353 397.963C471.353 397.963 491.95 373.707 487.513 362.478C482.242 349.13 488.92 270.065 536.698 282.362" fill="#5EC988"/>
<path d="M579.187 333.888C577.259 334.314 575.201 333.445 573.716 332.073C572.058 330.536 571.111 328.408 570.451 326.289C569.687 323.84 569.175 321.313 568.619 318.812C568.02 316.12 567.429 313.427 566.752 310.752C564.39 301.451 560.526 291.898 552.502 286.079C547.987 282.805 542.342 281.112 536.776 281.251C535.178 281.294 535.169 283.787 536.776 283.743C541.587 283.622 546.354 284.977 550.375 287.625C554.161 290.126 557.061 293.739 559.249 297.673C561.689 302.059 563.209 306.853 564.425 311.708C565.093 314.348 565.667 317.014 566.257 319.672C566.822 322.19 567.334 324.743 568.124 327.201C568.958 329.78 570.199 332.386 572.318 334.157C574.42 335.92 577.103 336.893 579.847 336.294C580.507 336.146 580.889 335.382 580.715 334.765C580.533 334.088 579.838 333.749 579.187 333.897V333.888Z" fill="#272747"/>
<path d="M471.465 398.371L471.248 397.572C493.201 391.745 497.256 347.436 497.291 346.985C498.602 331.891 503.118 310.709 517.211 295.528C525.66 286.418 533.441 283.839 533.771 283.735L534.023 284.525C533.945 284.551 526.086 287.165 517.776 296.136C510.099 304.421 500.46 319.984 498.116 347.063C498.107 347.176 497.1 358.492 493.357 370.39C488.373 386.222 480.8 395.896 471.457 398.38L471.465 398.371Z" fill="#272747"/>
<path d="M581.74 298.238C581.74 298.238 595.017 293.948 597.136 308.538C599.255 323.119 606.384 345.213 606.384 345.213C606.384 345.213 601.695 357.137 603.102 364.371C603.102 364.371 617.725 365.856 624.473 357.84L614.686 339.742C614.686 339.742 607.322 290.343 584.484 289.692L581.723 298.238H581.74Z" fill="#272747"/>
<path d="M239.323 324.509L221.843 324.83C213.541 330.345 230.544 375.991 230.544 375.991C230.145 388.766 244.117 409.114 244.117 409.114C244.117 409.114 249.301 424.277 249.718 433.457C250.135 442.637 257.281 436.653 257.281 436.653C267.658 409.114 246.114 353.897 246.114 353.897V332.255L239.323 324.509Z" fill="#5EC988"/>
<path d="M266.469 532.158C266.425 534.893 270.672 534.885 270.715 532.158C270.758 529.665 270.793 527.173 270.837 524.68C271.158 504.845 271.453 485.018 271.722 465.182C271.992 445.355 272.235 425.528 272.443 405.71C272.652 385.787 272.825 365.874 272.964 345.951C273.103 326.124 273.199 306.297 273.259 286.47C273.277 281.485 273.285 276.509 273.294 271.524C273.294 267.468 273.45 263.378 273.129 259.322C272.617 252.852 270.75 245.531 264.402 242.439C261.953 241.249 259.808 244.906 262.257 246.104C263.551 246.738 264.68 247.554 265.583 248.692C269.751 253.955 269.065 262.084 269.048 268.354C269.03 278.124 269.004 287.903 268.97 297.673C268.9 317.214 268.787 336.754 268.64 356.294C268.492 375.835 268.31 395.366 268.093 414.907C267.876 434.447 267.632 453.988 267.363 473.519C267.094 493.068 266.79 512.609 266.469 532.158Z" fill="#272747"/>
<path d="M221.765 302.163C167.492 288.199 159.911 377.997 165.894 393.161C170.93 405.918 147.536 433.475 147.536 433.475C179.44 427.534 185.224 388.228 185.224 388.228C204.154 370.52 221.843 302.311 221.843 302.311" fill="#5EC988"/>
<path d="M270.767 363.416C271.514 363.251 271.948 362.382 271.757 361.679C271.549 360.915 270.758 360.524 270.02 360.689C267.519 361.236 264.905 359.89 263.169 357.971C261.206 355.817 260.277 352.89 259.556 350.12C256.613 338.83 255.18 326.975 249.058 316.797C246.296 312.203 242.632 308.086 238.047 305.255C233.227 302.276 227.513 300.748 221.852 300.887C220.028 300.93 220.028 303.761 221.852 303.718C227.93 303.561 234.009 305.489 238.828 309.215C247.677 316.067 251.333 327.297 253.808 337.753C254.511 340.732 255.145 343.719 255.831 346.707C256.474 349.512 257.073 352.369 258.184 355.044C259.27 357.658 260.789 359.977 263.091 361.661C265.296 363.277 268.084 364.006 270.776 363.416H270.767Z" fill="#272747"/>
<path d="M147.415 433.014C172.346 426.388 176.957 376.069 177 375.557C179.692 344.501 190.79 326.628 199.621 317.11C209.226 306.758 218.057 303.831 218.43 303.709L218.717 304.604C218.63 304.63 209.747 307.574 200.307 317.744C184.486 334.8 179.406 358.639 177.938 375.635C177.929 375.765 176.783 388.619 172.528 402.132C166.866 420.118 158.261 431.112 147.658 433.926L147.415 433.014Z" fill="#272747"/>
<path d="M222.564 225.131C168.29 211.166 160.71 300.965 166.693 316.128C171.729 328.886 148.335 356.442 148.335 356.442C180.239 350.502 186.023 311.195 186.023 311.195C204.953 293.487 222.642 225.279 222.642 225.279" fill="#5EC988"/>
<path d="M271.566 286.383C272.313 286.218 272.747 285.35 272.556 284.646C272.348 283.882 271.557 283.491 270.819 283.656C268.318 284.203 265.705 282.857 263.968 280.938C262.005 278.784 261.076 275.858 260.355 273.087C257.412 261.797 255.979 249.943 249.857 239.764C247.095 235.17 243.431 231.054 238.846 228.223C234.026 225.244 228.312 223.715 222.651 223.854C220.827 223.898 220.827 226.729 222.651 226.685C228.729 226.529 234.808 228.457 239.627 232.183C248.476 239.035 252.132 250.264 254.607 260.72C255.31 263.699 255.944 266.687 256.63 269.674C257.273 272.479 257.872 275.336 258.983 278.011C260.069 280.625 261.588 282.944 263.89 284.629C266.095 286.244 268.883 286.974 271.575 286.383H271.566Z" fill="#272747"/>
<path d="M148.214 355.982C173.145 349.355 177.756 299.037 177.799 298.524C180.491 267.468 191.589 249.595 200.42 240.077C210.024 229.725 218.856 226.798 219.229 226.677L219.516 227.571C219.429 227.597 210.545 230.541 201.106 240.711C185.284 257.768 180.204 281.607 178.737 298.603C178.728 298.733 177.582 311.586 173.327 325.099C167.665 343.085 159.06 354.08 148.457 356.894L148.214 355.982Z" fill="#272747"/>
<path d="M318.736 374.801C373.009 360.836 380.59 450.635 374.607 465.799C369.57 478.556 392.964 506.113 392.964 506.113C361.06 500.172 355.277 460.866 355.277 460.866C336.346 443.158 318.658 374.949 318.658 374.949" fill="#5EC988"/>
<path d="M270.489 433.318C269.742 433.153 268.961 433.535 268.752 434.308C268.561 435.02 268.996 435.889 269.742 436.045C272.851 436.731 275.899 435.62 278.296 433.614C280.701 431.599 282.108 428.646 283.055 425.711C283.958 422.914 284.54 420.013 285.182 417.156C285.859 414.134 286.511 411.112 287.266 408.107C288.656 402.601 290.384 397.156 293.145 392.171C295.629 387.707 298.928 383.599 303.218 380.759C307.786 377.746 313.196 376.208 318.667 376.347C320.49 376.391 320.481 373.568 318.667 373.516C312.345 373.351 305.936 375.279 300.804 378.996C291.686 385.614 287.301 396.461 284.618 407.021C283.845 410.061 283.176 413.118 282.499 416.175C281.865 419.015 281.283 421.889 280.415 424.668C279.659 427.083 278.591 429.497 276.707 431.243C275.022 432.806 272.686 433.787 270.498 433.31L270.489 433.318Z" fill="#272747"/>
<path d="M367.973 474.77C363.718 461.257 362.58 448.403 362.563 448.282C359.897 417.53 348.947 399.848 340.237 390.442C330.798 380.247 321.879 377.285 321.784 377.25L322.071 376.356C322.444 376.478 331.275 379.404 340.879 389.756C356.884 407.004 362.016 431.06 363.501 448.204C363.544 448.707 368.155 499.035 393.086 505.661L392.843 506.573C382.24 503.759 373.634 492.764 367.973 474.779V474.77Z" fill="#272747"/>
<path d="M321.532 239.105C375.806 225.14 383.386 314.938 377.403 330.102C372.367 342.86 395.761 370.416 395.761 370.416C363.857 364.475 358.073 325.169 358.073 325.169C339.143 307.461 321.454 239.252 321.454 239.252" fill="#5EC988"/>
<path d="M273.285 297.621C272.539 297.456 271.757 297.838 271.549 298.611C271.358 299.323 271.792 300.192 272.539 300.348C275.647 301.034 278.695 299.923 281.092 297.917C283.497 295.902 284.904 292.949 285.851 290.014C286.754 287.217 287.336 284.316 287.978 281.459C288.656 278.437 289.307 275.415 290.062 272.41C291.452 266.904 293.18 261.459 295.941 256.474C298.425 252.01 301.725 247.902 306.014 245.062C310.582 242.049 315.992 240.511 321.463 240.65C323.286 240.694 323.278 237.871 321.463 237.819C315.141 237.654 308.732 239.582 303.6 243.299C294.482 249.917 290.097 260.764 287.414 271.324C286.641 274.364 285.972 277.421 285.295 280.478C284.661 283.318 284.079 286.192 283.211 288.971C282.455 291.386 281.387 293.8 279.503 295.546C277.818 297.109 275.482 298.09 273.294 297.613L273.285 297.621Z" fill="#272747"/>
<path d="M370.769 339.073C366.514 325.56 365.376 312.706 365.359 312.585C362.693 281.833 351.743 264.151 343.033 254.745C333.594 244.55 324.676 241.588 324.58 241.553L324.867 240.659C325.24 240.781 334.071 243.707 343.676 254.059C359.68 271.307 364.812 295.363 366.297 312.507C366.34 313.01 370.942 363.338 395.882 369.964L395.639 370.876C385.036 368.062 376.431 357.067 370.769 339.082V339.073Z" fill="#272747"/>
<path d="M270.385 257.134L267.25 247.424C241.312 248.171 232.949 304.274 232.949 304.274L221.834 324.83C229.493 333.932 246.105 332.247 246.105 332.247C247.712 324.031 242.38 310.483 242.38 310.483C242.38 310.483 250.491 285.385 252.887 268.823C255.293 252.262 270.376 257.125 270.376 257.125L270.385 257.134Z" fill="#272747"/>
<path d="M217.727 430.426L213.698 435.02V447.848C213.698 447.848 200.933 480.571 207.081 496.898C207.081 496.898 211.318 500.45 211.562 495.005C211.805 489.56 214.879 480.58 214.879 480.58C214.879 480.58 223.154 468.517 222.92 460.944C222.92 460.944 233.002 433.891 228.078 430.626L217.718 430.435L217.727 430.426Z" fill="#5EC988"/>
<path d="M201.636 553.487C201.445 541.902 201.271 530.317 201.106 518.731C200.941 507.155 200.802 495.569 200.672 483.993C200.542 472.416 200.438 460.84 200.351 449.254C200.264 437.678 200.195 426.093 200.151 414.516C200.134 408.723 200.116 402.931 200.108 397.138C200.108 393.421 199.691 388.601 202.166 385.483C202.695 384.806 203.364 384.32 204.137 383.946C205.596 383.234 204.319 381.063 202.869 381.775C199.109 383.608 198.006 387.941 197.702 391.78C197.511 394.177 197.598 396.6 197.607 399.005C197.607 401.958 197.615 404.911 197.624 407.864C197.659 419.614 197.72 431.364 197.798 443.114C197.876 454.917 197.98 466.728 198.11 478.53C198.232 490.281 198.38 502.031 198.536 513.781C198.692 525.531 198.875 537.29 199.057 549.041C199.083 550.517 199.109 551.993 199.126 553.47C199.152 555.085 201.671 555.094 201.645 553.47L201.636 553.487Z" fill="#272747"/>
<path d="M228.087 417.26C228.087 417.26 238.577 457.679 249.787 468.178C249.787 468.178 253.217 491.479 272.122 494.996C272.122 494.996 258.254 478.669 261.241 471.105C264.793 462.116 260.295 408.897 228.13 417.174" fill="#5EC988"/>
<path d="M199.092 453.484C200.689 453.831 202.339 453.397 203.642 452.442C205.005 451.443 205.908 450.071 206.551 448.525C207.202 446.944 207.567 445.251 207.94 443.583C208.34 441.812 208.722 440.04 209.139 438.277C210.606 432.076 212.777 425.424 218.022 421.359C220.879 419.145 224.483 418.007 228.086 418.103C229.163 418.129 229.163 416.453 228.086 416.427C224.726 416.34 221.348 417.243 218.491 419.015C215.773 420.699 213.602 423.131 211.969 425.858C208.34 431.894 207.489 438.92 205.743 445.607C205.318 447.248 204.771 448.977 203.598 450.262C202.565 451.4 201.019 452.199 199.534 451.868C199.092 451.773 198.631 451.999 198.501 452.45C198.388 452.867 198.64 453.388 199.083 453.484H199.092Z" fill="#272747"/>
<path d="M272.052 495.274C265.765 493.607 260.668 487.085 257.316 476.429C254.798 468.422 254.12 460.805 254.112 460.727C253.235 450.653 250.23 436.523 240.852 426.414C235.259 420.387 229.997 418.641 229.945 418.624L230.119 418.094C230.336 418.164 235.572 419.901 241.268 426.032C246.505 431.677 253.078 442.263 254.676 460.675C254.702 460.979 257.438 490.802 272.209 494.727L272.061 495.266L272.052 495.274Z" fill="#272747"/>
<path d="M227.609 371.614C227.609 371.614 238.099 412.032 249.31 422.532C249.31 422.532 252.74 445.833 271.644 449.35C271.644 449.35 257.776 433.023 260.763 425.459C264.315 416.47 259.817 363.251 227.652 371.527" fill="#5EC988"/>
<path d="M198.614 407.829C200.212 408.176 201.862 407.742 203.164 406.787C204.528 405.788 205.431 404.416 206.073 402.87C206.725 401.29 207.089 399.596 207.463 397.929C207.862 396.157 208.244 394.385 208.661 392.622C210.129 386.421 212.3 379.769 217.544 375.705C220.401 373.49 224.005 372.352 227.609 372.448C228.686 372.474 228.686 370.798 227.609 370.772C224.248 370.685 220.87 371.588 218.013 373.36C215.295 375.045 213.124 377.476 211.492 380.203C207.862 386.239 207.011 393.265 205.266 399.952C204.84 401.594 204.293 403.322 203.121 404.607C202.087 405.745 200.542 406.544 199.057 406.214C198.614 406.118 198.154 406.344 198.023 406.796C197.911 407.212 198.162 407.734 198.605 407.829H198.614Z" fill="#272747"/>
<path d="M271.575 449.619C265.288 447.952 260.19 441.43 256.838 430.774C254.32 422.766 253.643 415.15 253.634 415.072C252.757 404.998 249.752 390.868 240.374 380.759C234.782 374.732 229.519 372.986 229.467 372.969L229.641 372.439C229.858 372.509 235.094 374.246 240.791 380.377C246.027 386.022 252.601 396.608 254.199 415.02C254.225 415.324 256.96 445.147 271.731 449.072L271.583 449.611L271.575 449.619Z" fill="#272747"/>
<path d="M170.705 460.31C170.705 460.31 160.215 500.728 149.004 511.228C149.004 511.228 145.574 534.529 126.669 538.046C126.669 538.046 140.537 521.719 137.55 514.155C133.998 505.166 138.497 451.947 170.661 460.223" fill="#5EC988"/>
<path d="M199.248 494.909C197.954 495.196 196.565 494.614 195.566 493.685C194.446 492.651 193.812 491.218 193.369 489.785C192.857 488.135 192.509 486.433 192.136 484.757C191.737 482.942 191.337 481.127 190.877 479.329C189.288 473.068 186.691 466.641 181.281 462.716C178.242 460.51 174.447 459.372 170.696 459.467C169.619 459.494 169.61 461.17 170.696 461.144C173.935 461.057 177.139 461.969 179.848 463.758C182.393 465.442 184.347 467.874 185.823 470.523C187.464 473.476 188.489 476.706 189.305 479.972C189.757 481.752 190.139 483.541 190.538 485.33C190.92 487.024 191.268 488.743 191.797 490.402C192.353 492.139 193.195 493.893 194.62 495.083C196.035 496.273 197.841 496.924 199.682 496.525C200.125 496.429 200.385 495.917 200.264 495.491C200.142 495.031 199.673 494.805 199.231 494.909H199.248Z" fill="#272747"/>
<path d="M126.739 538.324L126.591 537.785C141.362 533.86 144.098 504.037 144.124 503.733C145.001 493.572 148.049 479.312 157.531 469.09C163.219 462.959 168.456 461.222 168.681 461.152L168.855 461.682C168.803 461.699 163.514 463.462 157.922 469.498C152.755 475.074 146.269 485.556 144.688 503.776C144.688 503.855 144.002 511.471 141.484 519.478C138.123 530.134 133.026 536.648 126.748 538.324H126.739Z" fill="#272747"/>
<path d="M169.046 379.891C169.046 379.891 158.556 420.309 147.345 430.808C147.345 430.808 143.915 454.109 125.011 457.626C125.011 457.626 138.879 441.299 135.891 433.735C132.34 424.746 136.838 371.527 169.002 379.804" fill="#5EC988"/>
<path d="M197.598 414.49C196.304 414.776 194.915 414.195 193.916 413.265C192.796 412.232 192.162 410.799 191.719 409.366C191.207 407.716 190.859 406.014 190.486 404.338C190.087 402.523 189.687 400.707 189.227 398.91C187.638 392.648 185.041 386.222 179.631 382.296C176.592 380.09 172.797 378.953 169.046 379.048C167.969 379.074 167.96 380.75 169.046 380.724C172.285 380.637 175.489 381.549 178.199 383.338C180.743 385.023 182.697 387.455 184.173 390.104C185.814 393.056 186.839 396.287 187.655 399.552C188.107 401.333 188.489 403.122 188.888 404.911C189.27 406.604 189.618 408.324 190.147 409.983C190.703 411.72 191.545 413.474 192.97 414.664C194.385 415.853 196.191 416.505 198.032 416.105C198.475 416.01 198.736 415.497 198.614 415.072C198.492 414.611 198.024 414.386 197.581 414.49H197.598Z" fill="#272747"/>
<path d="M125.08 457.896L124.933 457.357C139.712 453.432 142.439 423.609 142.465 423.305C143.342 413.144 146.39 398.884 155.873 388.662C161.561 382.531 166.797 380.794 167.023 380.724L167.196 381.254C167.144 381.271 161.856 383.034 156.263 389.07C151.097 394.646 144.61 405.128 143.03 423.348C143.03 423.427 142.343 431.043 139.825 439.05C136.465 449.706 131.367 456.22 125.089 457.896H125.08Z" fill="#272747"/>
<path d="M199.309 390.494C199.309 390.494 208.253 387.611 209.677 397.425C211.101 407.238 215.903 422.115 215.903 422.115C215.903 422.115 212.742 430.14 213.698 435.012C213.698 435.012 223.545 436.01 228.086 430.617L221.504 418.433C221.504 418.433 216.546 385.179 201.176 384.737L199.317 390.486L199.309 390.494Z" fill="#272747"/>
<path d="M371.811 63.3977C392.4 63.3977 409.099 80.0895 409.099 100.689V137.208H334.532V100.689C334.532 80.0982 351.222 63.3977 371.82 63.3977H371.811Z" fill="#272747"/>
<path d="M408.708 141.438C395.031 151.156 376.813 154.899 357.205 156.818C370.717 145.849 365.42 133.743 357.205 121.454L387.19 118.38C388.058 129.54 396.707 136.409 408.717 141.446L408.708 141.438Z" fill="#EAC7B2"/>
<path d="M414.856 257.525L326.447 245.227C333.611 231.723 338.422 218.678 336.737 206.902C335.843 201.014 335.912 195.022 336.963 189.159L337.527 186.155C338.7 180.379 340.931 174.873 344.11 169.914C347.661 164.191 346.437 155.593 344.9 146.813L365.654 143.739C377.108 149.558 389.968 145.684 403.324 138.354L427.925 140.665C426.258 184.504 422.593 224.723 414.856 257.525Z" fill="#EDEDED"/>
<path d="M488.659 521.241L471.743 524.316L362.58 334.418L319.526 524.316L304.147 523.543C303.809 415.923 298.972 297.76 324.997 251.871C334.757 228.7 349.702 206.511 344.127 183.723C366.028 190.106 388.067 189.646 410.236 182.95C409.194 210.298 410.184 235.917 414.083 259.062L488.65 521.233L488.659 521.241Z" fill="#FCDCA3"/>
<path d="M483.84 572.75C476.25 572.75 469.607 567.652 467.627 560.322L466.125 554.755C465.769 553.435 465.665 552.063 465.812 550.708L468.669 524.316C474.105 517.568 482.016 515.944 493.27 521.241L500.226 552.298C502.249 561.347 496.561 570.318 487.513 572.35C486.306 572.619 485.081 572.758 483.848 572.758L483.84 572.75Z" fill="#1E1E1E"/>
<path d="M367.964 130.669C381.973 130.669 393.329 119.311 393.329 105.301C393.329 91.2906 381.973 79.9331 367.964 79.9331C353.955 79.9331 342.599 91.2906 342.599 105.301C342.599 119.311 353.955 130.669 367.964 130.669Z" fill="#EAC7B2"/>
<path d="M348.365 191.027C349.641 191.027 350.675 189.992 350.675 188.717C350.675 187.441 349.641 186.406 348.365 186.406C347.089 186.406 346.055 187.441 346.055 188.717C346.055 189.992 347.089 191.027 348.365 191.027Z" fill="#EDEDED"/>
<path d="M406.789 191.027C408.065 191.027 409.099 189.992 409.099 188.717C409.099 187.441 408.065 186.406 406.789 186.406C405.513 186.406 404.479 187.441 404.479 188.717C404.479 189.992 405.513 191.027 406.789 191.027Z" fill="#EDEDED"/>
<path d="M384.489 101.836L344.518 101.132V74.9309H392.947L384.489 101.836Z" fill="#272747"/>
<path d="M400.632 136.435H382.952C389.491 120.82 388.909 104.346 382.952 87.2283H400.632V136.435Z" fill="#272747"/>
<path d="M422.55 282.128L412.077 294.408C407.406 299.888 399.173 300.539 393.694 295.867C392.608 294.938 391.679 293.835 390.95 292.61C387.268 286.418 389.3 278.42 395.491 274.737C395.986 274.442 396.49 274.182 397.02 273.956L415.629 265.975L437.92 234.45L425.624 179.858L447.151 172.937L459.447 242.135L422.55 282.111V282.128Z" fill="#EAC7B2"/>
<path d="M341.826 287.886L352.298 300.166C356.97 305.646 365.202 306.297 370.682 301.625C371.767 300.696 372.696 299.593 373.426 298.368C377.108 292.176 375.076 284.178 368.884 280.496C368.389 280.2 367.886 279.94 367.356 279.714L348.747 271.733L326.456 240.208L338.752 185.616L317.225 178.695L304.929 247.894L341.826 287.869V287.886Z" fill="#EAC7B2"/>
<path d="M450.225 176.028C440.473 175.742 431.034 179.502 424.156 186.424L416.471 140.291L425.771 140.178C433.535 140.465 440.299 145.571 442.705 152.953L450.225 176.02V176.028Z" fill="#EDEDED"/>
<path d="M314.151 181.786C323.903 181.5 333.342 185.26 340.219 192.182C349.12 178.686 350.405 162.932 347.905 146.049L338.604 145.936C330.841 146.223 324.076 151.329 321.671 158.711L314.151 181.778V181.786Z" fill="#EDEDED"/>
<path d="M406.398 186.797H407.249L412.355 139.397C412.407 138.884 412.043 138.424 411.53 138.372C411.496 138.372 411.461 138.372 411.435 138.372H407.345C406.832 138.372 406.416 138.789 406.416 139.301V186.806L406.398 186.797Z" fill="#FCDCA3"/>
<path d="M347.21 189.099H348.061L353.167 145.71C353.21 145.311 352.924 144.946 352.524 144.903C352.498 144.903 352.464 144.903 352.438 144.903H347.939C347.54 144.903 347.21 145.233 347.21 145.632V189.107V189.099Z" fill="#FCDCA3"/>
</g>
<defs>
<clipPath id="clip0_326_31279">
<rect width="690" height="581" fill="white"/>
</clipPath>
</defs>
</svg>
