<svg width="358" height="222" viewBox="0 0 358 222" fill="none" xmlns="http://www.w3.org/2000/svg">
<rect width="358" height="222" fill="none"/>
<path d="M31.64 183.192C32.92 183.192 33.928 182.568 34.568 181.656L36.36 183.032C35.336 184.424 33.672 185.32 31.64 185.32C28.104 185.32 25.688 182.6 25.688 179.4C25.688 176.2 28.104 173.48 31.64 173.48C33.672 173.48 35.336 174.392 36.36 175.752L34.568 177.144C33.928 176.232 32.92 175.608 31.64 175.608C29.528 175.608 28.024 177.256 28.024 179.4C28.024 181.544 29.528 183.192 31.64 183.192ZM41.7435 176.616C44.3675 176.616 46.1595 178.552 46.1595 180.968C46.1595 183.384 44.3675 185.32 41.7435 185.32C39.1195 185.32 37.3275 183.384 37.3275 180.968C37.3275 178.552 39.1195 176.616 41.7435 176.616ZM41.7755 183.4C43.0715 183.4 44.0475 182.36 44.0475 180.968C44.0475 179.56 43.0715 178.536 41.7755 178.536C40.4315 178.536 39.4395 179.56 39.4395 180.968C39.4395 182.376 40.4315 183.4 41.7755 183.4ZM48.0129 185V176.936H50.0449V177.576C50.6049 177.032 51.3569 176.616 52.4289 176.616C54.1729 176.616 55.5649 177.816 55.5649 180.2V185H53.5169V180.28C53.5169 179.208 52.9089 178.536 51.9169 178.536C50.8929 178.536 50.3489 179.224 50.0449 179.736V185H48.0129ZM57.1683 183.832L58.5123 182.616C59.0082 183.24 59.6003 183.688 60.3683 183.688C61.0243 183.688 61.3602 183.304 61.3602 182.824C61.3602 181.416 57.5043 181.944 57.5043 179.112C57.5043 177.688 58.7043 176.616 60.3843 176.616C61.6163 176.616 62.7363 177.208 63.3123 177.992L61.9683 179.176C61.5523 178.664 61.0243 178.248 60.4003 178.248C59.7603 178.248 59.4563 178.6 59.4563 179.016C59.4563 180.392 63.3123 179.912 63.3123 182.696C63.2803 184.392 61.9203 185.32 60.4003 185.32C58.9603 185.32 57.9363 184.744 57.1683 183.832ZM72.5775 183.688C71.8255 184.696 70.5775 185.32 69.0575 185.32C66.1935 185.32 64.5775 183.32 64.5775 180.968C64.5775 178.584 66.0815 176.616 68.7215 176.616C70.9615 176.616 72.4335 178.136 72.4335 180.248C72.4335 180.696 72.3695 181.112 72.3055 181.384H66.6575C66.8495 182.888 67.7775 183.496 69.0415 183.496C69.9215 183.496 70.6895 183.112 71.1215 182.536L72.5775 183.688ZM68.6735 178.28C67.6335 178.28 66.9455 178.856 66.7215 179.912H70.4335C70.4015 179.096 69.8095 178.28 68.6735 178.28ZM75.4431 175.528C74.7231 175.528 74.1151 174.92 74.1151 174.2C74.1151 173.48 74.7231 172.872 75.4431 172.872C76.1631 172.872 76.7551 173.48 76.7551 174.2C76.7551 174.92 76.1631 175.528 75.4431 175.528ZM74.4191 185V176.936H76.4511V185H74.4191ZM78.8879 185V173H80.9199V185H78.8879ZM83.3566 185V173H85.3886V185H83.3566ZM95.2494 183.688C94.4974 184.696 93.2494 185.32 91.7294 185.32C88.8654 185.32 87.2494 183.32 87.2494 180.968C87.2494 178.584 88.7534 176.616 91.3934 176.616C93.6334 176.616 95.1054 178.136 95.1054 180.248C95.1054 180.696 95.0414 181.112 94.9774 181.384H89.3294C89.5214 182.888 90.4494 183.496 91.7134 183.496C92.5934 183.496 93.3614 183.112 93.7934 182.536L95.2494 183.688ZM91.3454 178.28C90.3054 178.28 89.6174 178.856 89.3934 179.912H93.1054C93.0734 179.096 92.4814 178.28 91.3454 178.28ZM97.091 185V176.936H99.123V177.736C99.651 177.192 100.339 176.776 101.251 176.776C101.523 176.776 101.763 176.824 101.955 176.888V178.888C101.699 178.824 101.427 178.776 101.059 178.776C100.067 178.776 99.427 179.32 99.123 179.832V185H97.091ZM102.887 183.832L104.231 182.616C104.727 183.24 105.319 183.688 106.087 183.688C106.743 183.688 107.079 183.304 107.079 182.824C107.079 181.416 103.223 181.944 103.223 179.112C103.223 177.688 104.423 176.616 106.103 176.616C107.335 176.616 108.455 177.208 109.031 177.992L107.687 179.176C107.271 178.664 106.743 178.248 106.119 178.248C105.479 178.248 105.175 178.6 105.175 179.016C105.175 180.392 109.031 179.912 109.031 182.696C108.999 184.392 107.639 185.32 106.119 185.32C104.679 185.32 103.655 184.744 102.887 183.832ZM110.008 179.928H114.328V181.896H110.008V179.928ZM116.289 185V173.8H122.817V175.688H118.561V178.344H122.177V180.232H118.561V183.112H122.817V185H116.289ZM125.154 185V176.936H127.186V177.576C127.746 177.032 128.498 176.616 129.57 176.616C131.314 176.616 132.706 177.816 132.706 180.2V185H130.658V180.28C130.658 179.208 130.05 178.536 129.058 178.536C128.034 178.536 127.49 179.224 127.186 179.736V185H125.154ZM135.525 182.056V178.76H134.021V176.936H135.525V174.92H137.573V176.936H140.037V178.76H137.573V182.056C137.573 182.952 138.053 183.304 138.853 183.304C139.413 183.304 139.781 183.24 140.053 183.128V184.904C139.653 185.08 139.173 185.16 138.501 185.16C136.485 185.16 135.525 184.024 135.525 182.056ZM141.857 185V176.936H143.889V177.736C144.417 177.192 145.105 176.776 146.017 176.776C146.289 176.776 146.529 176.824 146.721 176.888V178.888C146.465 178.824 146.193 178.776 145.825 178.776C144.833 178.776 144.193 179.32 143.889 179.832V185H141.857ZM155.437 183.688C154.685 184.696 153.437 185.32 151.917 185.32C149.053 185.32 147.437 183.32 147.437 180.968C147.437 178.584 148.941 176.616 151.581 176.616C153.821 176.616 155.293 178.136 155.293 180.248C155.293 180.696 155.229 181.112 155.165 181.384H149.517C149.709 182.888 150.637 183.496 151.901 183.496C152.781 183.496 153.549 183.112 153.981 182.536L155.437 183.688ZM151.533 178.28C150.493 178.28 149.805 178.856 149.581 179.912H153.293C153.261 179.096 152.669 178.28 151.533 178.28ZM157.279 188.936V176.936H159.311V177.592C159.935 176.968 160.719 176.616 161.823 176.616C164.383 176.616 165.919 178.616 165.919 180.968C165.919 183.32 164.383 185.32 161.823 185.32C160.719 185.32 159.935 184.968 159.311 184.344V188.936H157.279ZM161.535 178.536C160.591 178.536 159.823 178.952 159.311 179.704V182.232C159.855 183 160.607 183.4 161.535 183.4C162.911 183.4 163.807 182.376 163.807 180.968C163.807 179.56 162.911 178.536 161.535 178.536ZM167.779 185V176.936H169.811V177.736C170.339 177.192 171.027 176.776 171.939 176.776C172.211 176.776 172.451 176.824 172.643 176.888V178.888C172.387 178.824 172.115 178.776 171.747 178.776C170.755 178.776 170.115 179.32 169.811 179.832V185H167.779ZM175.303 175.528C174.583 175.528 173.975 174.92 173.975 174.2C173.975 173.48 174.583 172.872 175.303 172.872C176.023 172.872 176.615 173.48 176.615 174.2C176.615 174.92 176.023 175.528 175.303 175.528ZM174.279 185V176.936H176.311V185H174.279ZM177.934 183.832L179.278 182.616C179.774 183.24 180.366 183.688 181.134 183.688C181.79 183.688 182.126 183.304 182.126 182.824C182.126 181.416 178.27 181.944 178.27 179.112C178.27 177.688 179.47 176.616 181.15 176.616C182.382 176.616 183.502 177.208 184.078 177.992L182.734 179.176C182.318 178.664 181.79 178.248 181.166 178.248C180.526 178.248 180.222 178.6 180.222 179.016C180.222 180.392 184.078 179.912 184.078 182.696C184.046 184.392 182.686 185.32 181.166 185.32C179.726 185.32 178.702 184.744 177.934 183.832ZM193.343 183.688C192.591 184.696 191.343 185.32 189.823 185.32C186.959 185.32 185.343 183.32 185.343 180.968C185.343 178.584 186.847 176.616 189.487 176.616C191.727 176.616 193.199 178.136 193.199 180.248C193.199 180.696 193.135 181.112 193.071 181.384H187.423C187.615 182.888 188.543 183.496 189.807 183.496C190.687 183.496 191.455 183.112 191.887 182.536L193.343 183.688ZM189.439 178.28C188.399 178.28 187.711 178.856 187.487 179.912H191.199C191.167 179.096 190.575 178.28 189.439 178.28ZM194.371 183.832L195.715 182.616C196.211 183.24 196.803 183.688 197.571 183.688C198.227 183.688 198.563 183.304 198.563 182.824C198.563 181.416 194.707 181.944 194.707 179.112C194.707 177.688 195.907 176.616 197.587 176.616C198.819 176.616 199.939 177.208 200.515 177.992L199.171 179.176C198.755 178.664 198.227 178.248 197.603 178.248C196.963 178.248 196.659 178.6 196.659 179.016C196.659 180.392 200.515 179.912 200.515 182.696C200.483 184.392 199.123 185.32 197.603 185.32C196.163 185.32 195.139 184.744 194.371 183.832Z" fill="#CE0500"/>
<path d="M203.27 185.192C202.486 185.192 201.862 184.568 201.862 183.8C201.862 183.048 202.486 182.408 203.27 182.408C204.022 182.408 204.678 183.048 204.678 183.8C204.678 184.568 204.022 185.192 203.27 185.192ZM205.968 183.448L207.616 181.928C208.288 182.792 209.184 183.304 210.096 183.304C210.992 183.304 211.536 182.824 211.536 182.024C211.536 179.96 206.448 180.52 206.448 176.728C206.448 174.952 207.92 173.48 210.064 173.48C211.744 173.48 213.024 174.232 213.984 175.368L212.32 176.872C211.664 176.024 210.928 175.464 210.08 175.464C209.28 175.464 208.752 175.976 208.752 176.648C208.752 178.68 213.84 178.104 213.84 181.944C213.808 184.056 212.176 185.32 210.112 185.32C208.224 185.32 206.96 184.632 205.968 183.448ZM223.343 183.688C222.591 184.696 221.343 185.32 219.823 185.32C216.959 185.32 215.343 183.32 215.343 180.968C215.343 178.584 216.847 176.616 219.487 176.616C221.727 176.616 223.199 178.136 223.199 180.248C223.199 180.696 223.135 181.112 223.071 181.384H217.423C217.615 182.888 218.543 183.496 219.807 183.496C220.687 183.496 221.455 183.112 221.887 182.536L223.343 183.688ZM219.439 178.28C218.399 178.28 217.711 178.856 217.487 179.912H221.199C221.167 179.096 220.575 178.28 219.439 178.28ZM225.185 185V176.936H227.217V177.736C227.745 177.192 228.433 176.776 229.345 176.776C229.617 176.776 229.857 176.824 230.049 176.888V178.888C229.793 178.824 229.521 178.776 229.153 178.776C228.161 178.776 227.521 179.32 227.217 179.832V185H225.185ZM230.939 176.936H233.115L235.211 182.696L237.291 176.936H239.483L236.539 185H233.867L230.939 176.936ZM241.787 175.528C241.067 175.528 240.459 174.92 240.459 174.2C240.459 173.48 241.067 172.872 241.787 172.872C242.507 172.872 243.099 173.48 243.099 174.2C243.099 174.92 242.507 175.528 241.787 175.528ZM240.763 185V176.936H242.795V185H240.763ZM249.104 183.4C249.904 183.4 250.544 183.032 250.928 182.472L252.512 183.688C251.76 184.68 250.576 185.32 249.104 185.32C246.32 185.32 244.656 183.32 244.656 180.968C244.656 178.616 246.32 176.616 249.104 176.616C250.576 176.616 251.76 177.256 252.512 178.248L250.928 179.464C250.544 178.904 249.904 178.536 249.072 178.536C247.744 178.536 246.768 179.56 246.768 180.968C246.768 182.392 247.744 183.4 249.104 183.4ZM261.14 183.688C260.388 184.696 259.14 185.32 257.62 185.32C254.756 185.32 253.14 183.32 253.14 180.968C253.14 178.584 254.644 176.616 257.284 176.616C259.524 176.616 260.996 178.136 260.996 180.248C260.996 180.696 260.932 181.112 260.868 181.384H255.22C255.412 182.888 256.34 183.496 257.604 183.496C258.484 183.496 259.252 183.112 259.684 182.536L261.14 183.688ZM257.236 178.28C256.196 178.28 255.508 178.856 255.284 179.912H258.996C258.964 179.096 258.372 178.28 257.236 178.28ZM262.367 179.928H266.687V181.896H262.367V179.928ZM268.648 185V173.8H272.344C274.808 173.8 276.312 175.064 276.312 177.144C276.312 179.208 274.808 180.472 272.344 180.472H270.92V185H268.648ZM272.44 175.688H270.92V178.584H272.44C273.4 178.584 273.976 178.024 273.976 177.112C273.976 176.264 273.4 175.688 272.44 175.688ZM283.2 181.512V176.936H285.248V181.416C285.248 183.832 283.84 185.32 281.472 185.32C279.104 185.32 277.712 183.832 277.712 181.416V176.936H279.76V181.512C279.76 182.68 280.368 183.4 281.488 183.4C282.592 183.4 283.2 182.68 283.2 181.512ZM296.137 180.968C296.137 183.32 294.601 185.32 292.041 185.32C290.937 185.32 290.153 184.968 289.529 184.344V185H287.497V173H289.529V177.592C290.153 176.968 290.937 176.616 292.041 176.616C294.601 176.616 296.137 178.616 296.137 180.968ZM291.753 178.536C290.809 178.536 290.025 178.952 289.529 179.688V182.248C290.073 183 290.841 183.4 291.753 183.4C293.129 183.4 294.025 182.376 294.025 180.968C294.025 179.56 293.129 178.536 291.753 178.536ZM297.997 185V173H300.029V185H297.997ZM303.49 175.528C302.77 175.528 302.162 174.92 302.162 174.2C302.162 173.48 302.77 172.872 303.49 172.872C304.21 172.872 304.802 173.48 304.802 174.2C304.802 174.92 304.21 175.528 303.49 175.528ZM302.466 185V176.936H304.498V185H302.466ZM310.807 183.4C311.607 183.4 312.247 183.032 312.631 182.472L314.215 183.688C313.463 184.68 312.279 185.32 310.807 185.32C308.023 185.32 306.359 183.32 306.359 180.968C306.359 178.616 308.023 176.616 310.807 176.616C312.279 176.616 313.463 177.256 314.215 178.248L312.631 179.464C312.247 178.904 311.607 178.536 310.775 178.536C309.447 178.536 308.471 179.56 308.471 180.968C308.471 182.392 309.447 183.4 310.807 183.4ZM316.77 185.192C315.986 185.192 315.362 184.568 315.362 183.8C315.362 183.048 315.986 182.408 316.77 182.408C317.522 182.408 318.178 183.048 318.178 183.8C318.178 184.568 317.522 185.192 316.77 185.192ZM319.13 176.936H320.634V176.088C320.634 174.376 321.77 173 323.786 173C324.522 173 325.146 173.176 325.658 173.448L324.794 175.144C324.554 174.968 324.234 174.824 323.818 174.824C323.13 174.824 322.682 175.304 322.682 176.04V176.936H325.146V178.76H322.682V185H320.634V178.76H319.13V176.936ZM326.435 185V176.936H328.467V177.736C328.995 177.192 329.683 176.776 330.595 176.776C330.867 176.776 331.107 176.824 331.299 176.888V178.888C331.043 178.824 330.771 178.776 330.403 178.776C329.411 178.776 328.771 179.32 328.467 179.832V185H326.435Z" fill="black"/>
<path d="M188.755 151.915H149.554C144.447 151.915 140.292 147.752 140.292 142.633V41.2822C140.292 36.1636 144.447 32 149.554 32H188.755C193.862 32 198.017 36.1636 198.017 41.2822V142.631C198.017 147.75 193.862 151.913 188.755 151.913V151.915Z" fill="#272747"/>
<path d="M188.796 149.41H149.517C145.684 149.41 142.565 146.284 142.565 142.443V40.9005C142.565 37.06 145.684 33.9343 149.517 33.9343H188.796C192.628 33.9343 195.747 37.06 195.747 40.9005V142.443C195.747 146.284 192.628 149.41 188.796 149.41Z" fill="white"/>
<path d="M175.29 40.5412H162.79C161.349 40.5412 160.177 39.366 160.177 37.9223C160.177 36.4786 161.349 35.3034 162.79 35.3034H175.29C176.731 35.3034 177.903 36.4786 177.903 37.9223C177.903 39.366 176.731 40.5412 175.29 40.5412Z" fill="#272747"/>
<path d="M177.493 82.4373L173.609 79.4085C173.609 79.4085 169.176 80.7937 169.061 80.8502C168.946 80.9067 162.181 96.6322 162.181 96.6322C162.181 96.6322 179.512 105.521 178.245 104.654C176.978 103.79 177.239 92.0749 178.418 90.5463C179.601 89.0158 178.591 85.1793 178.591 85.1793L177.497 82.4393H177.491H177.493V82.4373Z" fill="#161616"/>
<path d="M166.753 89.5227H172.022V97.8983L166.213 95.9861L166.753 89.5227Z" fill="#E0CAB0"/>
<path d="M178.211 109.361C177.437 109.682 176.642 109.961 175.826 110.193C173.871 110.754 171.806 111.051 169.676 111.051C167.811 111.051 165.997 110.823 164.262 110.389C163.65 110.237 163.048 110.06 162.459 109.858C161.716 109.603 160.99 109.315 160.283 108.983L160.62 107.336L161.508 102.974L162.55 97.878L162.743 96.9188L163.205 94.6594L163.211 94.6311H173.748L173.754 94.6513L176.563 103.911L177.738 107.79L178.213 109.363L178.211 109.361Z" fill="#CE0500"/>
<path d="M181.804 107.477C180.673 108.21 179.47 108.842 178.211 109.361C177.437 109.682 176.642 109.961 175.826 110.193L175.443 108.6L174.01 102.641L172.082 94.6331H172.084C172.084 94.6331 172.269 94.6291 172.584 94.6291C172.878 94.6291 173.283 94.6331 173.752 94.6492C174.879 94.6896 176.368 94.8047 177.532 95.1076C178.431 95.3398 179.136 95.6851 179.337 96.1919C179.537 96.6947 180.369 100.547 181.445 105.753C181.562 106.314 181.679 106.888 181.802 107.477H181.804Z" fill="#CE0500"/>
<path d="M171.3 91.8386C174.496 91.8386 177.087 89.2422 177.087 86.0395C177.087 82.8367 174.496 80.2404 171.3 80.2404C168.104 80.2404 165.514 82.8367 165.514 86.0395C165.514 89.2422 168.104 91.8386 171.3 91.8386Z" fill="#E0CAB0"/>
<path d="M178.509 84.9755V84.9836L177.091 85.2279C177.014 84.9149 176.927 84.6241 176.839 84.3576C176.73 84.0345 176.615 83.7438 176.494 83.4833C176.186 82.821 175.839 82.3566 175.485 82.0355C174.153 80.826 172.678 81.6297 172.483 81.5893C172.225 81.5368 168.749 85.3167 168.304 89.5207C168.258 89.9871 168.245 90.4596 168.28 90.9341C168.282 90.9523 168.282 90.9684 168.282 90.9866C168.374 92.4202 167.873 93.6216 167.133 94.5969C167.125 94.607 167.117 94.6171 167.109 94.6272C166.847 94.9705 166.553 95.2854 166.249 95.5742C165.37 96.398 164.379 96.9977 163.64 97.3773C163.069 97.6721 162.65 97.8357 162.548 97.874C162.531 97.8801 162.523 97.8821 162.523 97.8821C162.523 97.8821 161.582 99.6529 161.508 102.97C161.478 104.362 161.599 106.023 162.004 107.942C162.088 108.342 162.183 108.749 162.294 109.169C162.354 109.402 162.411 109.632 162.459 109.854C161.715 109.599 160.99 109.311 160.283 108.98C159.719 108.719 159.171 108.436 158.635 108.129C158.145 107.853 157.666 107.556 157.2 107.241C157.446 106.653 157.684 106.141 157.891 105.735C158.032 105.458 158.159 105.234 158.262 105.07C159.529 103.049 158.665 99.5318 158.665 99.5318C156.709 97.8014 159.01 93.9932 159.01 93.9932C159.01 93.9932 158.605 88.9149 159.815 87.9356C161.026 86.9543 161.083 84.5292 161.083 84.5292C163.216 75.239 170.182 77.028 170.182 77.028C178.948 76.0628 178.529 84.6645 178.511 84.9694V84.9755H178.509Z" fill="#161616"/>
<path d="M167.812 94.6675L167.425 96.3838L166.831 99.0087L164.623 108.792L164.262 110.389C163.65 110.237 163.047 110.06 162.459 109.858C161.715 109.603 160.99 109.315 160.283 108.984C159.719 108.723 159.171 108.44 158.635 108.133C158.754 107.558 158.868 106.995 158.983 106.443C160.18 100.628 161.127 96.2081 161.343 95.667C161.546 95.1541 162.199 94.8573 163.017 94.6937C163.077 94.6816 163.142 94.6695 163.204 94.6594C163.263 94.6493 163.325 94.6392 163.384 94.6311C164.347 94.4898 165.463 94.4999 166.335 94.5443C166.638 94.5605 166.91 94.5807 167.135 94.5988C167.262 94.6089 167.377 94.621 167.47 94.6291C167.687 94.6513 167.814 94.6675 167.814 94.6675H167.812Z" fill="#CE0500"/>
<path d="M169.676 111.455C167.811 111.455 165.955 111.229 164.164 110.781C163.547 110.629 162.929 110.445 162.326 110.239C161.565 109.979 160.819 109.68 160.112 109.351C159.552 109.093 158.988 108.802 158.434 108.485C157.936 108.204 157.444 107.899 156.973 107.58C150.618 103.308 146.822 96.194 146.822 88.5534C146.822 75.9254 157.074 65.6497 169.676 65.6497C182.279 65.6497 192.531 75.9234 192.531 88.5534C192.531 96.3676 188.602 103.568 182.023 107.816C180.869 108.564 179.638 109.21 178.366 109.735C177.579 110.062 176.763 110.346 175.938 110.583C173.914 111.162 171.808 111.457 169.678 111.457L169.676 111.455ZM169.676 66.4554C157.519 66.4554 147.628 76.3676 147.628 88.5514C147.628 95.9234 151.289 102.785 157.422 106.91C157.876 107.217 158.349 107.51 158.831 107.78C159.367 108.087 159.911 108.368 160.451 108.616C161.134 108.935 161.851 109.222 162.588 109.474C163.169 109.674 163.765 109.85 164.359 109.997C166.088 110.429 167.877 110.647 169.678 110.647C171.732 110.647 173.764 110.363 175.717 109.803C176.513 109.577 177.3 109.301 178.06 108.986C179.287 108.479 180.474 107.857 181.588 107.136C187.937 103.037 191.727 96.089 191.727 88.5514C191.727 76.3676 181.836 66.4554 169.678 66.4554H169.676Z" fill="#272747"/>
<path d="M109 152.214C109 152.404 109.216 152.556 109.486 152.556H248.514C248.782 152.556 249 152.404 249 152.214C249 152.025 248.784 151.873 248.514 151.873H109.486C109.218 151.873 109 152.025 109 152.214Z" fill="#272747"/>
<path d="M196.562 96.8059C196.991 96.3839 197.519 96.0729 198.104 95.8993L202.353 91.2571L204.593 93.4096L200.04 97.8882C199.844 98.4616 199.514 98.9745 199.073 99.3844C197.983 100.428 196.538 100.697 195.845 99.9841C195.15 99.2733 195.47 97.8498 196.558 96.8079H196.562V96.8059Z" fill="#E0CAB0"/>
<path d="M198.333 94.7159L200.59 97.5589L212.253 88.7108L212.263 88.6906L219.08 75.9435C220.123 73.991 219.545 71.5619 217.734 70.2938C216.626 69.5164 215.247 69.3004 213.954 69.6982C212.66 70.096 211.643 71.051 211.159 72.3171L206.737 83.9173L198.333 94.7119V94.7159Z" fill="#CFCFCF"/>
<path d="M217.54 65.2318H212.785V72.7917L218.028 71.0653L217.54 65.2318Z" fill="#E0CAB0"/>
<path d="M208.212 62.09C208.212 64.9814 210.549 67.3237 213.434 67.3237C216.32 67.3237 218.657 64.9814 218.657 62.09C218.657 59.1985 216.32 56.8562 213.434 56.8562C210.549 56.8562 208.212 59.1985 208.212 62.09Z" fill="#E0CAB0"/>
<path d="M217.129 65.4357L217.639 66.4049L219.888 62.1222C221.241 57.9667 216.513 55.5801 216.513 55.5801C214.969 53.7588 211.869 55.889 211.869 55.889C207.396 54.8935 209.556 58.6714 209.556 58.6714C209.556 58.6714 211.081 58.7058 211.081 59.9415C211.081 61.1773 212.743 61.0924 212.743 61.0924L214.045 63.3761L214.764 62.4998C217.437 61.365 217.129 65.4357 217.129 65.4357Z" fill="#272747"/>
<path d="M219.467 142.694H215.248V148.693H219.467V142.694Z" fill="#E0CAB0"/>
<path d="M211.14 152.323C212.991 152.323 215.695 152.129 215.715 152.127C216.439 152.192 220.049 152.477 220.228 151.649C220.394 150.888 220.15 150.092 220.116 149.983C219.767 146.524 219.638 146.484 219.562 146.462C219.439 146.425 219.08 146.597 218.498 146.972L218.461 146.997L218.453 147.039C218.443 147.092 218.185 148.362 216.962 148.168C216.124 148.035 215.852 147.849 215.766 147.758C215.836 147.726 215.925 147.669 215.987 147.572C216.078 147.431 216.094 147.249 216.034 147.031C215.876 146.458 215.405 145.607 215.385 145.571L215.33 145.474L210.535 148.717L207.573 149.565C207.35 149.628 207.17 149.789 207.08 150.003C206.955 150.302 207.031 150.649 207.273 150.867C207.811 151.352 208.881 152.182 210.001 152.285C210.299 152.313 210.694 152.323 211.138 152.323H211.14Z" fill="#272747"/>
<path d="M228.399 133.701L225.148 136.396L228.964 141.019L232.215 138.323L228.399 133.701Z" fill="#E0CAB0"/>
<path d="M228.112 146.433C229.538 145.25 231.499 143.374 231.513 143.36C232.111 142.95 235.075 140.862 234.686 140.109C234.33 139.417 233.637 138.958 233.54 138.898C231.072 136.453 230.949 136.505 230.874 136.537C230.755 136.588 230.588 136.947 230.379 137.61L230.366 137.65L230.387 137.688C230.415 137.737 231.023 138.882 229.957 139.512C229.226 139.944 228.9 139.974 228.775 139.96C228.809 139.889 228.841 139.788 228.827 139.673C228.807 139.508 228.704 139.356 228.519 139.227C228.031 138.886 227.129 138.53 227.09 138.516L226.988 138.476L225.356 144.037L223.613 146.583C223.482 146.775 223.446 147.013 223.512 147.237C223.607 147.548 223.887 147.766 224.211 147.78C224.932 147.811 226.284 147.766 227.213 147.13C227.459 146.96 227.769 146.716 228.112 146.433Z" fill="#272747"/>
<path d="M208.273 96.4322L214.704 144.374H219.527L222.743 96.4322H208.271H208.273Z" fill="#272747"/>
<path d="M220.732 122.619L230.337 135.108L226.227 138.51L209.743 122.799L208.271 96.4322L211.218 99.0733L220.732 122.619Z" fill="#272747"/>
<path d="M211.218 68.2303L208.271 96.4323H222.743L223.865 87.2793C224.556 81.6256 223.406 75.8992 220.585 70.9562L218.365 67.0673L211.218 68.2303Z" fill="#CFCFCF"/>
<path d="M209.921 104.446C210.136 103.883 210.489 103.38 210.948 102.98L212.893 96.9875L215.824 98.0152L213.537 103.982C213.6 104.584 213.509 105.187 213.278 105.747C212.719 107.148 211.515 107.994 210.59 107.635C209.665 107.275 209.367 105.848 209.925 104.446H209.921Z" fill="#E0CAB0"/>
<path d="M210.672 101.795L213.902 103.443L220.851 90.5422V90.52L221.776 76.0889C221.917 73.8799 220.385 71.9092 218.211 71.5094C216.88 71.265 215.536 71.6406 214.526 72.5412C213.513 73.4417 212.983 74.736 213.068 76.0889L213.847 88.4806L210.672 101.797V101.795Z" fill="#CFCFCF"/>
</svg>
