<svg width="797" height="737" viewBox="0 0 797 737" fill="none" xmlns="http://www.w3.org/2000/svg">
<path d="M601.407 201.896C684.922 184.557 735.417 194.671 750.224 201.896C865.724 246.354 839.07 494.767 820.19 570.902C801.311 647.037 736.342 693.163 676.371 672.601C628.394 656.151 551.986 685.383 519.779 702.055C452.96 726.321 290.779 762.073 176.611 710.946C33.9021 647.037 7.80367 334.16 1.1402 274.697C-5.52326 215.233 18.9094 149.657 25.5729 119.092C32.2364 88.5266 100.537 16.2813 136.075 4.61096C171.614 -7.05941 276.008 4.61096 314.323 26.2845C344.975 43.6233 396.32 101.308 418.162 127.983C444.445 159.845 517.892 219.235 601.407 201.896Z" fill="white"/>
</svg>
