<svg width="30" height="31" viewBox="0 0 30 31" fill="none" xmlns="http://www.w3.org/2000/svg">
  <path d="M17.6516 13.5999C17.1635 13.1116 16.372 13.1116 15.8839 13.5999L15 14.4837C14.0236 15.46 12.4407 15.46 11.4644 14.4837C10.4881 13.5074 10.4881 11.9245 11.4644 10.9481L18.5028 3.90795C21.1326 3.31302 24.001 4.03929 26.0485 6.08679C29.0728 9.11099 29.2145 13.9261 26.474 17.1182L23.8387 19.787L17.6516 13.5999ZM3.95141 6.08679C6.66815 3.37005 10.8301 2.97939 13.9625 4.9148L9.69665 9.18038C7.74404 11.133 7.74404 14.2989 9.69665 16.2515C11.5901 18.1449 14.6244 18.2022 16.5869 16.4236L16.7677 16.2515L22.071 21.5547L16.7677 26.8581C15.7914 27.8344 14.2085 27.8344 13.2323 26.8581L3.95141 17.5772C0.778403 14.4042 0.778403 9.25979 3.95141 6.08679Z" fill="black"/>
</svg>