<svg width="26" height="27" viewBox="0 0 26 27" fill="none" xmlns="http://www.w3.org/2000/svg">
  <path d="M10.5089 1.13008C8.75692 0.562939 6.85238 1.35181 6.01457 2.99169L5.00734 4.96315C4.88767 5.1974 4.69716 5.38791 4.46291 5.50759L2.49144 6.51481C0.85157 7.35263 0.0626945 9.25716 0.629832 11.0091L1.31166 13.1154C1.39267 13.3656 1.39267 13.6351 1.31166 13.8854L0.629832 15.9916C0.0626945 17.7436 0.85157 19.6481 2.49144 20.486L4.46291 21.4931C4.69716 21.6129 4.88767 21.8034 5.00734 22.0376L6.01457 24.0091C6.85238 25.649 8.75692 26.4379 10.5089 25.8707L12.6151 25.1889C12.8654 25.1079 13.1349 25.1079 13.3851 25.1889L15.4914 25.8707C17.2434 26.4379 19.1479 25.649 19.9857 24.0091L20.9929 22.0376C21.1126 21.8034 21.3031 21.6129 21.5374 21.4931L23.5089 20.486C25.1487 19.6481 25.9376 17.7436 25.3705 15.9916L24.6886 13.8854C24.6076 13.6351 24.6076 13.3656 24.6886 13.1154L25.3705 11.0091C25.9376 9.25716 25.1487 7.35263 23.5089 6.51481L21.5374 5.50759C21.3031 5.38791 21.1126 5.1974 20.9929 4.96315L19.9857 2.99169C19.1479 1.35181 17.2434 0.562939 15.4914 1.13008L13.3851 1.8119C13.1349 1.8929 12.8654 1.89291 12.6151 1.8119L10.5089 1.13008ZM6.44983 13.197L8.21761 11.4291L11.7531 14.9647L18.8242 7.89368L20.592 9.66144L11.7531 18.5002L6.44983 13.197Z" fill="black"/>
</svg>